<?xml version="1.0" standalone="no"?>
<!DOCTYPE svg PUBLIC "-//W3C//DTD SVG 20010904//EN"
 "http://www.w3.org/TR/2001/REC-SVG-20010904/DTD/svg10.dtd">
<svg version="1.0" xmlns="http://www.w3.org/2000/svg"
 width="1552.000000pt" height="2000.000000pt" viewBox="0 0 1552.000000 2000.000000"
 preserveAspectRatio="xMidYMid meet">

<g transform="translate(0.000000,2000.000000) scale(0.100000,-0.100000)"
fill="#000000" stroke="none">
<path d="M5490 19609 c-237 -20 -522 -75 -764 -148 l-128 -39 -62 28 c-217 98
-534 149 -800 129 -160 -12 -265 -30 -412 -73 -467 -135 -861 -400 -1023 -687
l-31 -56 -103 -6 c-567 -32 -1030 -387 -1221 -936 -63 -181 -80 -282 -80 -481
0 -146 4 -189 22 -263 68 -273 220 -474 443 -586 59 -29 135 -58 180 -68 l77
-17 12 -61 c17 -92 48 -191 86 -282 l35 -82 -26 -83 c-39 -122 -81 -301 -102
-430 -14 -88 -18 -167 -17 -358 0 -224 3 -257 27 -383 45 -228 135 -472 232
-622 20 -33 33 -61 27 -63 -36 -12 -135 -87 -174 -132 -107 -123 -151 -255
-150 -455 1 -194 38 -317 135 -444 110 -143 333 -264 559 -302 l75 -12 -53
-111 c-158 -331 -193 -627 -108 -925 33 -117 120 -288 198 -391 79 -105 247
-268 344 -334 l72 -49 -82 -44 c-422 -226 -735 -588 -874 -1009 -69 -209 -87
-338 -81 -564 7 -259 43 -402 167 -668 34 -73 64 -151 67 -172 8 -58 -16 -112
-109 -242 -137 -194 -160 -255 -163 -443 l-2 -130 -41 -64 c-144 -222 -145
-528 -2 -755 43 -68 174 -199 210 -211 18 -6 21 -12 16 -33 -15 -68 -18 -195
-7 -272 57 -386 353 -628 794 -647 99 -5 127 -9 127 -20 0 -26 92 -248 151
-363 94 -186 250 -414 373 -547 30 -32 70 -87 90 -123 19 -36 64 -110 100
-165 48 -75 62 -103 55 -116 -17 -32 -39 -192 -39 -284 0 -172 54 -394 135
-556 121 -240 345 -475 599 -629 189 -114 460 -230 676 -290 122 -34 137 -47
246 -211 82 -123 139 -246 170 -367 22 -85 25 -112 21 -222 -5 -143 -18 -192
-104 -394 -50 -115 -55 -134 -50 -178 8 -68 50 -139 135 -230 200 -212 491
-381 813 -472 488 -137 1012 -209 1294 -177 127 15 335 62 975 221 514 128
515 128 665 135 901 39 1742 266 2610 705 138 69 276 143 308 163 266 171 474
629 519 1140 9 109 9 159 -1 238 -26 213 -118 454 -271 713 l-51 87 28 67 c26
63 28 75 28 217 0 129 -3 160 -23 225 -31 98 -60 154 -117 224 l-47 57 56 83
c68 104 152 270 200 398 135 363 157 799 61 1198 -74 304 -197 608 -347 858
l-50 83 99 102 c224 234 280 348 270 557 -6 123 -46 268 -99 358 -63 108 -416
440 -587 552 l-23 16 38 44 c91 108 202 306 274 488 32 81 35 85 149 186 266
237 427 436 590 731 192 349 312 722 366 1146 20 150 30 538 18 667 l-9 93 91
72 c382 304 655 721 800 1220 76 259 106 463 114 777 l6 245 46 95 c25 52 100
187 167 298 133 225 290 526 346 670 124 312 133 522 25 623 l-27 25 20 45
c34 75 115 329 138 434 32 140 33 313 3 370 -27 52 -46 69 -113 99 -107 49
-256 42 -387 -19 l-56 -25 -51 48 c-84 79 -132 97 -257 97 -101 0 -108 -1
-180 -37 -59 -29 -93 -56 -150 -116 -125 -132 -197 -276 -274 -552 -45 -163
-154 -520 -174 -571 l-9 -26 -58 53 c-121 113 -299 171 -494 161 -241 -12
-385 -91 -765 -417 -148 -127 -213 -162 -425 -233 -383 -128 -590 -232 -684
-344 -44 -52 -77 -137 -79 -202 l-2 -58 -66 5 c-269 19 -523 -224 -507 -483
13 -199 173 -362 536 -544 137 -69 175 -98 227 -177 40 -59 105 -211 105 -243
0 -10 -20 -61 -44 -112 -83 -175 -126 -426 -97 -569 l11 -55 -66 -132 c-36
-73 -111 -201 -167 -285 -95 -143 -328 -461 -346 -472 -4 -3 -15 29 -24 70 -9
41 -31 105 -49 142 -45 91 -159 205 -254 255 -38 20 -75 46 -82 59 -6 13 -24
53 -41 90 -86 195 -318 309 -568 278 -46 -6 -111 -19 -145 -30 l-61 -19 -81
76 c-147 139 -315 231 -491 269 -162 35 -388 20 -551 -36 -31 -11 -58 -19 -60
-17 -1 1 8 45 22 97 78 309 70 655 -21 910 -62 171 -155 317 -282 446 -48 48
-80 85 -71 82 9 -4 74 -12 143 -19 282 -27 610 32 870 156 373 179 598 485
672 915 22 124 21 417 0 596 -43 353 -123 636 -252 894 -112 222 -233 389
-402 551 -173 164 -324 268 -612 418 -279 146 -474 292 -641 482 l-67 75 -6
105 c-7 126 -41 248 -102 374 -55 113 -122 202 -225 298 -319 300 -791 434
-1360 386z m408 -109 c358 -39 665 -159 866 -340 67 -59 154 -178 196 -263 57
-118 80 -226 80 -373 0 -150 -19 -262 -70 -412 -21 -64 -37 -118 -35 -120 8
-9 66 31 89 61 32 42 79 144 101 221 l17 59 84 -91 c160 -172 314 -283 610
-440 303 -160 453 -262 603 -411 328 -326 552 -835 612 -1389 16 -158 6 -456
-20 -586 -50 -245 -130 -408 -273 -562 -124 -133 -288 -235 -479 -298 -166
-56 -267 -70 -479 -69 -208 0 -331 18 -530 75 -99 28 -115 36 -114 53 1 11 8
66 15 122 10 82 10 124 0 208 l-12 106 35 48 c47 63 102 163 131 234 92 226
90 492 -6 697 -104 223 -296 317 -545 265 l-30 -7 -43 119 c-87 238 -214 498
-352 719 -65 104 -69 114 -69 170 0 142 -58 360 -141 529 -176 361 -543 632
-1053 781 -130 37 -364 84 -425 84 -20 0 -80 -17 -132 -39 -52 -21 -140 -48
-194 -61 -183 -40 -178 -38 -105 -39 76 -1 190 18 329 54 l100 27 113 -22
c433 -82 805 -259 1049 -499 223 -220 324 -458 358 -843 l9 -107 82 -132 c146
-234 251 -451 331 -679 l42 -121 -24 -16 c-13 -9 -52 -44 -86 -78 l-62 -63
-49 48 c-59 57 -167 112 -277 141 -104 28 -313 30 -466 6 -199 -32 -430 -19
-589 34 -90 29 -197 80 -248 118 l-44 32 40 35 c173 148 301 434 327 735 l7
76 -38 6 c-77 12 -381 30 -396 25 -8 -4 -18 -19 -22 -33 -18 -71 -170 -354
-183 -341 -2 2 1 32 7 67 22 141 6 322 -40 448 -25 65 -100 201 -112 201 -4 0
-8 -11 -8 -24 0 -44 -29 -191 -58 -291 -84 -289 -228 -533 -436 -741 l-101
-101 -100 -32 c-468 -154 -890 -405 -1201 -716 -254 -254 -393 -484 -456 -757
-29 -127 -31 -383 -4 -508 29 -133 86 -287 154 -412 1 -3 -14 -2 -35 3 -21 5
-68 9 -106 9 l-67 0 -69 143 c-100 205 -169 432 -203 662 -19 130 -16 474 6
600 22 133 60 281 98 385 43 119 43 118 9 193 -36 81 -73 200 -97 317 -25 116
-25 389 -2 515 89 471 477 982 872 1146 100 42 103 53 4 15 -199 -74 -411
-217 -564 -378 -271 -285 -404 -611 -430 -1050 -4 -65 -11 -118 -16 -118 -19
0 -155 58 -208 90 -50 29 -102 68 -156 116 -45 41 -116 139 -150 206 -110 217
-114 537 -13 825 175 496 605 833 1120 879 l76 7 -13 -69 c-18 -100 -27 -245
-19 -311 9 -72 17 -57 40 72 49 282 171 518 357 690 228 211 620 375 1032 430
160 22 458 16 576 -10 81 -18 230 -72 230 -83 0 -4 -31 -22 -69 -40 -277 -133
-647 -379 -902 -599 -180 -156 -464 -462 -445 -480 4 -4 64 49 134 118 294
290 600 519 965 723 408 227 814 363 1215 405 114 12 438 13 550 1z m8152
-2520 c39 -20 90 -67 90 -84 0 -4 -31 -43 -68 -85 -92 -103 -141 -165 -190
-238 -53 -78 -127 -225 -142 -282 -6 -25 -39 -99 -72 -165 -162 -323 -332
-745 -394 -978 -19 -73 -55 -194 -79 -268 -55 -170 -87 -297 -120 -475 -29
-156 -44 -345 -28 -345 6 0 20 48 33 108 64 312 141 562 238 772 16 36 37 92
46 125 83 297 226 666 361 935 41 80 87 172 104 205 17 33 53 107 80 165 156
328 374 534 591 557 142 14 230 -66 230 -209 0 -106 -77 -373 -166 -580 l-29
-66 -58 -16 c-231 -64 -459 -282 -588 -562 -62 -134 -166 -398 -279 -709 -56
-154 -117 -309 -136 -345 -152 -285 -238 -494 -264 -646 -19 -109 -7 -109 35
1 53 138 130 290 232 458 137 225 156 267 248 537 152 444 233 630 358 817
143 215 324 349 461 341 45 -3 53 -7 73 -37 16 -24 23 -48 23 -83 0 -194 -215
-671 -528 -1173 -42 -66 -89 -149 -106 -185 l-31 -65 -6 -265 c-8 -296 -22
-413 -75 -630 -121 -492 -388 -935 -794 -1317 -158 -148 -387 -318 -632 -467
-43 -26 -78 -52 -78 -57 0 -23 252 95 459 215 63 36 117 64 120 60 3 -3 6
-105 5 -227 -2 -519 -97 -956 -293 -1347 -175 -348 -385 -630 -669 -896 l-118
-112 -92 -183 c-75 -153 -181 -329 -245 -411 -13 -16 -21 -14 -113 27 -203 90
-419 135 -654 135 l-149 0 -58 35 c-131 78 -419 162 -745 219 -44 8 -53 25
-117 214 -97 289 -125 460 -126 767 0 272 12 364 72 544 74 224 176 379 472
716 296 336 479 589 655 902 l58 103 26 -50 c53 -103 147 -174 273 -206 86
-22 110 -9 37 21 -198 81 -292 238 -291 485 1 209 43 389 129 547 51 96 54
125 20 217 -37 103 -84 174 -176 266 -76 76 -102 94 -250 174 -253 136 -345
210 -393 314 -34 72 -31 189 6 264 59 120 188 188 357 188 239 0 480 -153 610
-387 26 -46 39 -51 100 -33 19 6 87 11 150 11 183 1 333 -52 470 -165 30 -26
62 -46 71 -46 23 0 51 36 94 118 88 169 292 331 508 402 61 20 68 25 63 44
-15 54 -66 392 -75 490 -11 125 -22 146 -54 101 -86 -121 -269 -270 -422 -346
-127 -63 -218 -83 -340 -75 -85 5 -97 3 -211 -34 -179 -58 -294 -82 -429 -87
l-120 -6 -70 35 c-39 19 -91 43 -117 53 -41 15 -48 22 -54 51 -8 43 10 116 42
171 65 112 255 209 638 324 278 84 300 97 518 290 219 195 364 288 522 333
152 44 280 34 421 -34 87 -42 209 -135 201 -154 -73 -165 -138 -338 -156 -420
-22 -100 -81 -657 -79 -750 1 -47 2 -45 16 34 85 507 123 671 199 852 156 371
222 545 345 908 145 425 269 616 439 671 39 13 136 2 180 -21z m-9253 -647
c124 -84 296 -151 452 -173 87 -13 292 -8 426 10 39 5 129 9 200 9 213 0 346
-33 452 -114 82 -62 105 -99 93 -150 -12 -52 -12 -216 -1 -234 8 -12 11 -10
15 10 3 13 12 59 21 102 50 237 216 400 422 414 132 9 236 -44 311 -157 77
-115 112 -285 93 -449 -23 -205 -79 -340 -217 -528 -13 -19 -14 -28 -4 -55 21
-60 24 -217 6 -299 -23 -105 -22 -104 -97 -90 -88 16 -325 25 -374 13 l-40 -9
50 -7 c258 -35 366 -65 530 -145 204 -100 341 -218 462 -399 265 -396 270
-902 12 -1414 -163 -325 -366 -554 -708 -797 -63 -44 -108 -81 -101 -81 28 0
264 131 403 225 28 19 52 33 53 32 6 -8 -21 -191 -42 -287 -73 -329 -216 -605
-427 -826 -238 -249 -528 -405 -902 -484 -130 -28 -457 -38 -630 -21 -279 29
-658 126 -881 226 l-59 27 140 45 c77 25 142 47 144 49 13 12 -15 12 -95 0
-355 -57 -737 -64 -1025 -21 -360 54 -627 181 -873 416 -455 435 -509 1005
-145 1554 36 55 89 129 118 164 28 35 51 69 51 76 0 15 -51 35 -91 35 -39 0
-180 74 -271 143 -171 129 -271 280 -285 430 -3 32 -10 60 -14 63 -14 8 -29
-43 -29 -100 0 -208 153 -404 422 -541 60 -30 115 -55 123 -55 22 0 19 -7 -36
-76 -40 -50 -55 -63 -72 -60 -12 3 -51 8 -85 11 -146 14 -322 85 -429 172
-152 124 -213 253 -213 450 0 174 50 312 149 417 108 113 228 145 389 104 47
-12 37 2 172 -238 106 -189 241 -409 251 -410 4 0 10 21 14 47 9 58 55 189 89
250 24 43 25 46 10 81 -28 67 -83 300 -99 417 -29 220 -17 503 30 725 44 207
164 486 291 676 182 272 442 528 745 733 l76 51 44 -18 c276 -116 631 -86 854
71 28 20 53 36 57 36 4 1 38 -20 75 -46z m7716 -1629 l13 -52 -76 -31 c-197
-80 -356 -215 -440 -373 l-32 -59 -31 21 c-55 37 -189 98 -267 121 -63 19
-101 23 -238 24 -160 1 -163 2 -179 26 -9 13 -41 52 -70 86 -62 72 -70 64 83
82 116 14 263 51 345 87 48 21 78 28 119 26 84 -2 241 17 322 39 100 27 259
107 343 172 l70 54 12 -86 c7 -47 18 -109 26 -137z m-4068 -1924 c145 -38 294
-123 416 -237 l47 -44 -79 -76 c-67 -64 -169 -195 -169 -217 0 -3 42 36 93 87
150 151 292 211 497 212 124 0 197 -14 272 -51 95 -48 143 -112 198 -263 l23
-63 93 -43 c170 -79 240 -173 269 -360 l6 -40 -109 -72 c-303 -199 -574 -463
-757 -738 -83 -124 -186 -330 -241 -480 -51 -142 -109 -378 -130 -534 l-18
-134 -65 -29 c-157 -70 -320 -90 -406 -48 -84 41 -118 140 -97 284 18 120 51
216 147 416 46 96 106 232 134 303 62 154 255 716 249 723 -8 8 -144 -286
-213 -461 -78 -197 -86 -212 -256 -530 -71 -133 -129 -246 -129 -253 0 -23
-16 -12 -52 36 -203 268 -232 766 -72 1250 24 74 64 175 88 225 25 51 36 81
24 67 -11 -14 -40 -65 -65 -114 -222 -442 -293 -881 -197 -1214 38 -130 117
-272 196 -351 33 -33 34 -34 27 -99 -15 -141 26 -282 99 -342 111 -91 349
-105 518 -31 l42 19 11 -78 c7 -43 16 -92 21 -109 5 -17 5 -31 1 -31 -5 0 -55
15 -112 34 -217 71 -489 85 -688 36 l-84 -20 -73 50 c-166 115 -290 155 -475
154 l-127 -1 -11 58 c-15 72 -37 127 -62 155 -19 20 -19 21 53 96 191 196 323
457 388 763 31 145 38 398 16 536 -21 125 -79 307 -134 416 -35 68 -119 200
-181 283 -17 23 -18 33 -9 119 l10 94 80 96 c90 108 198 266 259 377 23 41 51
81 63 89 61 40 242 95 356 109 72 9 237 -4 315 -24z m1639 -1252 c-326 -371
-452 -562 -533 -806 -64 -194 -75 -272 -76 -542 0 -194 4 -266 18 -345 33
-182 89 -386 151 -547 14 -38 23 -68 20 -68 -15 0 -207 52 -258 70 -71 25
-215 56 -308 65 l-66 7 -26 70 c-69 186 -47 445 69 796 182 546 519 999 955
1281 72 47 81 50 54 19z m-3209 -785 c-37 -153 -73 -264 -114 -347 l-36 -71
-140 -6 c-202 -10 -311 -47 -409 -139 -38 -35 -66 -52 -111 -65 -68 -19 -151
-59 -181 -86 -19 -18 -23 -18 -73 -3 -133 39 -293 62 -523 74 -207 11 -306 27
-418 71 -136 52 -261 151 -314 249 -15 27 -24 50 -20 50 3 0 39 -12 78 -26 39
-14 133 -41 209 -59 701 -173 1378 -65 1859 295 57 43 128 103 158 133 30 31
56 52 58 47 2 -5 -8 -57 -23 -117z m-3895 38 c119 -50 278 -96 440 -128 104
-21 166 -25 370 -30 l245 -5 0 -102 c0 -124 22 -189 96 -289 l51 -68 -7 -83
-7 -83 -86 -23 c-241 -63 -493 -171 -649 -279 -82 -56 -182 -146 -172 -154 2
-2 58 -32 124 -67 228 -120 543 -316 529 -329 -5 -4 -40 -30 -79 -57 -38 -27
-86 -63 -105 -80 -19 -17 -46 -35 -60 -39 -43 -13 -162 -76 -223 -117 -143
-97 -264 -225 -369 -388 -32 -51 -71 -95 -117 -132 -38 -31 -84 -77 -103 -102
-31 -42 -38 -46 -123 -67 -297 -73 -588 -206 -823 -375 -57 -41 -106 -74 -109
-74 -9 0 5 129 22 195 22 85 66 169 130 249 122 152 138 246 72 414 -92 231
-108 276 -132 369 -40 161 -49 239 -49 418 0 119 5 198 18 264 88 472 396 865
911 1160 49 28 94 49 100 47 5 -2 53 -22 105 -45z m1229 -1004 l21 -93 -20
-59 c-35 -100 -37 -255 -5 -337 5 -12 1 -20 -11 -23 -11 -4 -53 -19 -95 -36
l-76 -29 -94 59 c-118 74 -356 210 -431 247 -32 16 -58 31 -58 35 0 10 126 92
220 142 106 57 279 126 390 156 47 13 90 25 95 26 37 12 43 4 64 -88z m2366
-212 c109 -30 136 -31 256 -5 120 25 121 25 215 -6 79 -26 187 -46 179 -34 -8
12 130 34 210 34 44 -1 108 -8 143 -17 82 -22 163 -57 156 -68 -3 -5 3 -6 12
-2 13 5 15 3 9 -7 -5 -9 -4 -11 3 -6 14 8 94 -43 86 -55 -3 -5 2 -6 10 -3 19
7 29 -27 24 -82 -3 -37 -5 -39 -32 -36 -17 2 -41 11 -55 21 -66 46 -266 108
-381 118 -65 5 -79 10 -104 35 -20 21 -27 36 -23 53 3 20 2 23 -9 14 -7 -6
-16 -19 -19 -30 -5 -15 -16 -19 -49 -19 -24 0 -83 -7 -132 -16 -49 -8 -121
-15 -161 -16 -61 0 -79 4 -122 29 -43 24 -54 26 -68 15 -36 -26 -104 -53 -185
-74 -71 -18 -112 -21 -288 -22 -191 -1 -530 6 -530 11 0 9 104 52 112 46 6 -3
8 -1 5 4 -11 17 131 76 194 81 47 3 64 0 118 -27 34 -18 59 -36 56 -41 -3 -6
1 -7 9 -4 19 7 20 14 1 38 -8 10 -12 23 -9 27 3 5 -1 9 -8 9 -30 1 20 18 84
29 37 6 78 16 90 21 40 16 111 11 203 -15z m-2247 -97 c17 -35 47 -82 67 -105
l36 -43 -28 -11 c-15 -6 -42 -13 -59 -16 -28 -5 -32 -2 -43 28 -16 47 -25 132
-17 173 4 20 8 36 10 36 2 0 17 -28 34 -62z m1372 2 c0 -16 -78 -63 -92 -54
-7 4 -10 4 -6 0 4 -5 -41 -39 -99 -78 -58 -38 -145 -99 -194 -134 l-89 -65
-94 3 c-52 2 -92 0 -90 -3 3 -5 -44 -16 -92 -21 -14 -2 -8 -61 10 -97 l15 -29
-34 -6 c-18 -4 -60 -25 -93 -46 -42 -28 -70 -40 -95 -40 -61 0 -133 20 -180
50 -57 36 -79 25 -37 -19 30 -31 37 -69 11 -63 -7 1 -10 -2 -7 -7 6 -8 -21
-39 -70 -80 -28 -23 -127 -61 -162 -61 -27 0 -41 8 -71 41 -47 52 -67 49 -41
-6 11 -22 19 -45 20 -51 0 -23 -39 -45 -91 -50 -88 -9 -121 -24 -185 -83 -71
-67 -148 -96 -230 -88 -79 7 -186 30 -175 36 5 3 -12 6 -37 6 -26 0 -78 4
-117 9 -95 11 -75 -7 30 -29 44 -8 105 -23 135 -31 64 -18 172 -73 165 -84 -3
-4 2 -11 10 -14 9 -3 32 -41 53 -83 35 -73 41 -80 94 -106 68 -34 211 -154
202 -169 -4 -6 -2 -8 3 -5 14 9 37 -19 27 -34 -4 -8 -3 -9 4 -5 23 14 25 -43
2 -95 -12 -28 -19 -57 -16 -66 4 -9 -5 -19 -27 -28 -31 -13 -32 -13 -37 13
-10 53 -148 112 -262 112 l-45 0 5 50 c10 107 -48 197 -150 235 -27 10 -48 24
-48 31 0 30 -69 91 -117 103 -27 7 -63 19 -81 27 -32 14 -32 14 -26 69 5 44 3
59 -10 73 -9 10 -14 21 -11 24 3 3 -6 3 -21 0 -25 -4 -25 -3 -14 18 21 40 92
110 104 103 6 -3 8 -3 4 2 -11 11 12 36 25 28 5 -3 7 -1 4 4 -7 11 62 70 76
65 4 -1 7 3 7 9 0 5 5 7 10 4 6 -4 9 -1 8 6 -5 20 124 81 180 87 68 6 199 -37
185 -62 -3 -6 -2 -8 2 -3 5 4 19 0 32 -8 40 -27 28 7 -23 64 -25 28 -43 55
-39 61 4 6 1 9 -7 8 -19 -4 -22 40 -4 66 17 26 183 111 236 121 27 5 46 0 82
-19 26 -14 50 -21 53 -16 3 5 1 11 -5 15 -6 4 -7 11 -4 17 4 6 2 8 -3 5 -6 -4
-18 2 -27 12 -14 15 -15 24 -7 39 17 32 108 72 162 72 41 0 51 -4 74 -31 14
-18 40 -58 56 -90 16 -33 33 -59 38 -59 5 0 -2 34 -15 75 -13 42 -24 82 -24
90 0 44 152 88 305 89 77 0 99 -4 149 -27 33 -15 57 -30 53 -33 -3 -3 -16 -1
-29 6 -22 11 -22 10 -4 -4 11 -9 27 -14 36 -11 9 3 32 -5 51 -18 57 -39 59
-39 52 -22 -3 9 -22 32 -41 51 -21 20 -29 34 -21 34 8 0 21 -6 28 -12 11 -10
13 -10 7 0 -5 8 3 12 28 12 40 0 170 24 207 38 19 8 30 7 39 -1 10 -9 11 -9 6
0 -4 8 19 24 70 48 85 39 88 40 78 23 -4 -7 -3 -8 5 -4 6 4 9 11 6 15 -4 8 81
51 155 77 42 16 100 18 100 4z m1072 -69 c54 -32 120 -35 261 -12 70 12 143
21 163 21 36 0 94 -24 94 -39 0 -5 -26 -18 -58 -30 -60 -21 -88 -44 -144 -120
-28 -37 -44 -48 -101 -67 -93 -31 -119 -48 -282 -181 -39 -31 -81 -25 -150 22
-86 58 -111 88 -83 97 7 3 22 22 33 43 18 35 27 41 82 56 72 19 93 33 93 63 0
38 -43 69 -104 74 -43 3 -65 -1 -111 -22 -58 -26 -75 -26 -75 -1 0 24 38 36
138 46 75 7 109 15 152 37 30 16 56 30 57 31 1 0 17 -8 35 -18z m1813 -32 c54
-11 133 -33 173 -49 72 -28 78 -28 161 -19 78 9 143 7 226 -7 30 -5 30 -6 33
-74 4 -88 -7 -95 -122 -87 -85 6 -170 27 -295 72 -103 37 -158 41 -235 21 -35
-10 -78 -16 -97 -14 l-34 3 -5 72 c-6 82 -16 101 -46 78 -18 -14 -18 -15 0 -8
17 6 18 3 12 -33 -4 -21 -12 -47 -18 -57 -25 -47 -226 -97 -360 -89 -25 2 -28
6 -28 37 0 49 22 96 59 127 35 30 122 52 181 46 22 -2 36 1 33 6 -10 15 253
-3 362 -25z m-981 -38 c69 -22 76 -39 40 -89 -16 -23 -34 -42 -40 -42 -6 0
-19 20 -28 45 -11 27 -35 59 -59 81 l-42 36 40 -7 c22 -4 62 -15 89 -24z
m-1649 5 c51 -10 73 -20 85 -36 8 -12 34 -41 58 -65 34 -35 42 -50 42 -79 0
-44 -44 -136 -65 -136 -9 0 -30 33 -53 83 -61 132 -129 195 -198 184 -24 -4
-40 0 -59 14 -14 11 -25 24 -25 29 0 5 24 11 53 13 28 2 61 4 72 5 11 1 51 -5
90 -12z m365 -11 c5 -3 10 -23 10 -44 0 -47 14 -61 63 -61 27 0 48 8 69 25 24
20 40 25 88 25 58 0 85 -14 59 -31 -8 -5 -34 -9 -59 -9 -54 0 -90 -22 -90 -55
0 -13 -4 -26 -9 -29 -17 -11 -209 51 -260 83 -49 32 -91 74 -91 92 0 4 7 9 17
11 28 5 192 0 203 -7z m2952 -66 c103 -33 301 -89 316 -89 7 0 11 -3 9 -7 -3
-5 11 -9 31 -10 20 -1 38 -7 40 -13 2 -5 7 -8 12 -5 4 2 62 -8 129 -23 100
-23 119 -30 109 -41 -11 -11 -10 -11 7 -1 47 28 615 -128 615 -170 0 -17 -44
-40 -78 -40 -37 0 -75 16 -68 29 3 4 0 8 -7 8 -22 1 -97 49 -90 58 5 4 3 5 -4
1 -6 -3 -31 -2 -55 4 -24 5 -87 19 -141 31 -53 11 -95 25 -92 30 3 5 -1 6 -9
3 -8 -3 -52 12 -98 33 l-83 38 -254 0 c-182 0 -255 3 -258 11 -2 7 -13 10 -24
7 -31 -8 -46 13 -53 77 -4 33 -14 66 -22 75 -20 20 -8 19 68 -6z m-1372 -62
c0 -51 19 -69 78 -75 67 -6 199 14 290 44 85 28 82 28 82 11 0 -8 -19 -19 -41
-26 -31 -9 -44 -20 -52 -42 -10 -25 -17 -29 -50 -29 -44 0 -106 -30 -194 -95
-60 -44 -62 -45 -68 -23 -14 44 -75 178 -99 217 l-25 40 32 4 c17 2 35 5 40 5
4 1 7 -13 7 -31z m-2510 -22 c0 -9 11 -38 25 -65 21 -42 33 -90 22 -90 -5 0
-117 110 -117 115 0 7 54 55 62 55 5 0 8 -7 8 -15z m3340 -19 c36 -13 91 -34
124 -46 38 -13 108 -26 200 -34 86 -8 153 -19 171 -28 34 -19 75 -55 75 -67 0
-5 -60 -8 -132 -7 -73 0 -209 -1 -303 -4 l-170 -5 -107 54 c-98 49 -178 108
-178 131 0 6 21 10 48 11 26 1 58 5 72 9 50 16 134 10 200 -14z m-1264 -131
c20 -15 33 -29 31 -32 -3 -2 -34 1 -70 7 -46 8 -72 19 -88 36 l-22 24 54 25
54 25 3 -29 c2 -20 15 -38 38 -56z m274 53 c24 -39 26 -78 5 -78 -8 0 -15 -4
-15 -8 0 -5 -6 -17 -14 -28 -14 -18 -16 -16 -36 29 l-21 48 26 35 c14 19 28
34 31 34 2 0 13 -15 24 -32z m835 -121 c33 -17 107 -47 165 -68 85 -31 98 -38
70 -38 -109 -2 -214 36 -372 132 -66 40 -80 61 -57 84 8 8 28 -1 73 -34 33
-25 88 -59 121 -76z m898 79 l79 1 -5 -26 c-2 -14 -8 -35 -12 -46 -6 -13 8 -5
37 22 81 73 153 76 281 12 33 -17 122 -47 196 -66 151 -38 181 -52 181 -87 0
-40 -38 -75 -133 -121 -95 -46 -92 -59 4 -26 111 38 189 87 189 120 1 40 17
45 54 16 20 -15 50 -30 68 -34 17 -4 33 -12 35 -18 8 -23 -38 -47 -184 -98
-81 -28 -173 -65 -204 -83 -68 -39 -96 -40 -145 -7 -22 15 -51 25 -73 25 -31
0 -44 8 -97 65 -39 41 -69 65 -83 65 -27 0 -102 -68 -138 -126 -37 -58 -56
-63 -92 -25 -27 29 -34 31 -100 31 -39 0 -71 3 -71 6 0 4 10 22 22 42 l21 35
88 -7 c106 -8 173 6 196 40 33 50 -5 103 -117 165 -69 38 -160 113 -160 131 0
5 19 5 43 1 23 -5 77 -8 120 -7z m-1239 -59 c4 -26 6 -53 3 -61 -3 -8 -31 -22
-61 -32 -31 -10 -68 -30 -83 -46 -23 -24 -28 -39 -31 -97 -6 -100 2 -110 83
-103 71 5 79 -2 40 -38 -36 -34 -47 -78 -37 -141 5 -30 13 -62 17 -71 4 -10 3
-18 -2 -18 -18 0 -51 45 -61 80 -8 33 -11 35 -45 33 -47 -3 -86 -23 -164 -84
l-63 -49 -14 29 c-17 32 -77 87 -112 103 l-23 11 30 58 c42 85 40 99 -37 180
-47 50 -64 76 -62 92 3 20 7 22 61 19 53 -3 59 -2 64 17 6 23 14 22 80 -4 44
-18 55 -63 47 -192 -10 -146 9 -131 29 23 9 71 23 136 32 150 40 62 244 199
284 192 10 -2 19 -21 25 -51z m-2522 -14 c6 -66 32 -116 96 -184 52 -57 53
-59 28 -59 -17 0 -41 14 -68 39 -23 23 -66 49 -100 62 -49 18 -59 25 -55 41 7
24 80 148 88 148 4 0 9 -21 11 -47z m1806 -27 c17 -14 46 -86 38 -93 -1 -2
-23 0 -48 3 -42 6 -47 10 -77 61 l-31 56 50 -5 c28 -3 58 -13 68 -22z m-2379
-12 c74 -24 80 -25 122 -11 47 16 75 9 86 -19 10 -27 -20 -43 -117 -64 -52
-10 -128 -29 -168 -42 -63 -19 -75 -20 -83 -7 -20 33 -10 46 44 55 28 5 52 14
52 19 0 23 -173 15 -198 -9 -18 -18 -85 -39 -102 -32 -25 9 -17 25 23 45 20
10 69 35 107 55 85 44 126 46 234 10z m1796 -15 c38 -20 90 -67 82 -75 -13
-13 -105 13 -148 43 -27 18 -53 33 -58 33 -5 0 -13 5 -16 10 -12 19 98 11 140
-11z m-687 -20 c88 -11 154 -9 313 7 42 4 86 2 120 -6 68 -16 159 -56 159 -69
0 -23 -96 -53 -195 -61 -111 -9 -154 -20 -356 -86 -120 -39 -309 -84 -354 -84
-16 0 -75 60 -75 76 0 7 11 15 24 18 13 3 31 17 40 31 9 14 22 25 28 25 6 0
31 9 55 21 47 23 66 51 77 113 7 37 9 38 39 32 17 -3 73 -11 125 -17z m4496
-15 c25 -10 -125 -94 -166 -94 -47 0 -63 13 -41 31 34 27 68 43 118 55 61 15
69 16 89 8z m288 -21 c54 -9 95 -19 93 -24 -3 -4 3 -5 13 -2 27 7 197 -51 325
-111 115 -54 136 -69 117 -81 -5 -3 -10 -13 -10 -21 0 -12 8 -13 34 -9 26 5
42 1 72 -18 48 -30 180 -164 176 -178 -1 -6 2 -8 6 -5 5 3 22 -6 38 -20 16
-14 52 -40 79 -58 53 -35 149 -134 177 -183 l17 -30 -57 9 c-108 18 -221 -8
-269 -60 -18 -20 -33 -31 -33 -26 0 6 5 15 12 22 9 9 9 12 1 12 -7 0 -15 -9
-18 -20 -7 -23 -13 -24 -49 -10 -31 11 -32 27 -8 69 14 26 15 33 3 40 -9 6
-20 2 -32 -10 -24 -24 -36 -24 -49 0 -36 67 35 161 121 161 39 0 99 -18 99
-29 0 -4 8 -7 18 -8 9 0 28 -3 42 -7 24 -5 24 -5 -5 20 -16 13 -49 40 -72 59
-69 58 -105 47 -204 -58 -53 -57 -55 -57 -90 -47 -49 14 -72 41 -63 74 3 15 8
25 11 23 2 -3 16 7 32 22 16 14 54 37 85 51 53 24 71 40 44 40 -19 0 -97 -25
-152 -49 -27 -12 -51 -20 -53 -17 -8 8 59 56 69 50 7 -4 8 -2 4 4 -4 6 12 19
40 32 26 11 44 23 41 26 -11 11 -98 -16 -167 -52 -67 -34 -110 -43 -110 -23 0
20 41 69 52 63 6 -4 8 -2 4 4 -8 14 75 93 92 87 7 -3 10 0 7 5 -3 5 5 15 19
22 25 11 35 28 17 28 -33 0 -139 -62 -194 -114 -27 -25 -47 -33 -47 -18 0 4
18 41 39 82 30 57 43 74 57 72 14 -2 16 -1 6 6 -12 8 -11 15 2 40 15 28 14 30
-3 25 -10 -3 -36 -22 -57 -44 -37 -38 -63 -52 -48 -26 4 6 4 9 0 5 -4 -3 -8
-10 -9 -15 -2 -22 -55 -52 -119 -67 l-26 -6 27 28 c14 15 37 41 49 57 13 17
21 24 17 18 -10 -20 0 -15 21 9 19 22 19 22 0 8 -17 -13 -19 -13 -14 0 2 8 17
21 31 28 15 7 27 19 27 27 0 21 -45 0 -100 -48 -68 -60 -146 -88 -138 -49 2 9
9 16 16 15 6 -2 9 3 6 10 -5 15 41 59 70 67 29 8 30 25 1 38 -41 19 -59 14
-78 -19 -15 -28 -19 -30 -35 -18 -15 13 -16 12 -4 -3 12 -14 10 -19 -12 -33
-14 -10 -33 -14 -42 -11 -16 6 -16 37 -1 120 1 7 -22 10 -68 8 -76 -2 -89 2
-99 35 -11 34 28 35 206 6z m-2697 -30 c30 -21 54 -41 55 -45 0 -3 -15 -11
-34 -18 -28 -9 -43 -7 -87 10 -63 23 -59 23 -59 11 0 -6 18 -20 39 -32 39 -22
61 -54 61 -89 0 -27 -18 -25 -47 6 -23 25 -29 26 -89 21 l-65 -5 3 56 c3 49 6
58 28 68 14 6 43 20 65 32 57 28 69 27 130 -15z m-1022 -34 c12 -6 46 -34 74
-62 29 -28 55 -48 59 -44 4 3 -7 28 -24 54 l-32 48 62 3 c60 3 118 -12 118
-30 0 -5 21 -31 46 -58 39 -42 45 -52 34 -65 -7 -8 -25 -15 -41 -15 -32 0
-155 42 -202 70 -18 10 -65 28 -106 40 -90 28 -161 23 -228 -15 l-47 -26 -41
30 c-23 16 -54 33 -70 37 -59 15 10 27 157 29 81 0 150 4 154 8 11 11 63 8 87
-4z m3403 -65 c-20 -36 -35 -69 -32 -72 8 -7 36 18 68 62 28 38 30 40 81 37
69 -3 85 -8 92 -32 9 -28 -16 -63 -76 -106 -27 -19 -48 -37 -46 -40 3 -2 42
10 88 27 l83 30 28 -34 c17 -21 39 -36 56 -38 19 -2 27 -9 27 -23 0 -19 -7
-20 -105 -21 -78 -1 -133 -8 -215 -29 -73 -18 -152 -30 -236 -34 -104 -6 -131
-11 -155 -28 -29 -21 -46 -27 -72 -24 -10 1 -12 14 -7 56 8 58 -8 98 -55 140
-20 18 -20 19 68 45 48 14 118 43 154 63 90 50 105 50 78 -4 -12 -23 -19 -43
-17 -45 3 -3 53 29 112 71 60 41 110 73 113 71 2 -3 -12 -35 -32 -72z m-2248
2 c40 -21 68 -54 55 -67 -5 -5 -41 -9 -79 -7 l-69 3 0 30 c0 21 7 33 25 42 32
16 35 16 68 -1z m-1572 -16 c23 -12 50 -32 59 -46 17 -26 17 -25 -31 -92 -6
-9 -105 51 -158 94 -55 46 -57 49 -35 55 50 14 123 9 165 -11z m-1462 -92 c91
-45 168 -79 172 -76 3 4 -8 21 -25 39 -17 17 -31 34 -31 36 0 2 16 11 35 19
49 20 132 17 184 -6 l44 -20 -26 -28 c-15 -16 -27 -36 -27 -45 0 -22 -36 -44
-87 -52 -22 -3 -49 -12 -58 -19 -15 -11 -16 -15 -4 -35 13 -20 12 -24 -10 -42
-29 -24 -49 -24 -163 2 -100 22 -166 47 -185 70 -29 35 -56 212 -36 232 17 17
64 1 217 -75z m4272 36 c24 -19 44 -40 44 -45 0 -5 -26 -9 -59 -9 -32 0 -72
-5 -90 -11 -18 -6 -34 -9 -38 -6 -5 6 85 107 95 107 3 0 25 -16 48 -36z m-900
-14 c17 -25 24 -44 18 -50 -5 -5 -43 -2 -94 9 -98 22 -140 39 -140 57 0 16 26
21 117 23 l73 1 26 -40z m-4451 18 c-3 -7 -22 -22 -42 -33 -21 -11 -47 -34
-58 -52 l-20 -31 -123 -4 c-67 -2 -122 0 -122 4 0 16 78 46 135 53 64 8 89 17
120 46 11 9 36 19 55 22 19 2 40 5 47 5 7 1 10 -4 8 -10z m368 -27 c35 -17 77
-31 93 -31 28 0 29 -1 26 -45 l-4 -45 -47 41 c-25 23 -68 53 -96 67 -46 24
-60 26 -166 27 -96 0 -116 2 -111 14 4 11 27 13 123 8 106 -5 125 -8 182 -36z
m1677 -6 c-30 -32 -99 -65 -136 -65 -34 0 -61 14 -46 24 21 12 197 74 201 70
3 -2 -6 -15 -19 -29z m210 -49 c0 -29 -4 -35 -27 -41 -43 -9 -116 -68 -151
-120 l-31 -47 -15 37 c-21 49 -21 49 17 63 17 6 70 41 117 77 47 35 86 65 88
65 1 0 2 -15 2 -34z m1705 18 c-42 -22 -66 -45 -80 -77 l-11 -27 -14 24 c-11
22 -10 29 4 51 20 31 48 44 96 44 l35 1 -30 -16z m893 4 c7 -7 45 -12 96 -12
46 -1 88 -4 92 -9 13 -12 18 -117 6 -117 -6 0 -27 8 -47 17 -36 17 -36 17 -58
-10 l-22 -27 -117 7 c-130 7 -146 17 -84 54 39 23 46 36 36 64 -6 16 -1 22 24
32 41 15 59 16 74 1z m-728 -28 c58 -15 128 -66 160 -117 34 -54 36 -65 14
-87 -28 -29 -154 -14 -244 27 -58 28 -120 90 -120 121 0 27 6 33 65 58 39 17
53 17 125 -2z m-2590 -20 c8 -14 21 -20 46 -20 32 0 143 -49 188 -83 17 -13
10 -15 -74 -26 -109 -14 -130 -23 -130 -57 0 -18 10 -30 35 -45 40 -24 55 -46
55 -83 0 -61 -48 -32 -69 41 -20 70 -26 73 -174 73 -124 0 -130 1 -114 17 11
11 41 19 87 24 39 3 74 9 77 13 14 13 -22 26 -74 26 -29 0 -53 5 -53 10 0 6 8
10 18 10 9 0 34 5 54 11 29 7 39 16 44 37 8 31 42 72 60 72 7 0 18 -9 24 -20z
m3165 2 c0 -8 -18 -26 -40 -41 -53 -36 -55 -69 -4 -94 28 -13 62 -17 157 -18
67 0 130 5 141 10 11 6 29 11 41 11 28 0 82 -29 75 -40 -3 -5 -29 -16 -58 -25
-28 -10 -84 -33 -124 -52 -68 -33 -79 -35 -225 -44 -84 -5 -173 -12 -197 -15
l-45 -7 25 32 c72 96 75 122 25 201 -38 60 -35 69 24 70 19 1 67 7 105 15 82
15 100 15 100 -3z m763 -27 c-30 -28 -46 -35 -77 -35 -51 0 -192 27 -204 39
-14 14 85 29 208 30 l110 0 -37 -34z m1422 -31 c0 -8 18 -33 40 -55 43 -42 51
-64 23 -55 -10 3 -45 12 -78 21 -65 18 -105 39 -105 56 0 12 77 48 103 49 9 0
17 -7 17 -16z m-7040 -52 c1 -21 7 -55 15 -77 8 -22 15 -41 15 -42 0 -1 -14 2
-31 7 -36 11 -69 37 -69 56 0 22 -149 33 -274 19 -40 -5 -66 -3 -82 6 -22 11
-17 14 69 36 103 27 212 40 299 35 l58 -4 0 -36z m-983 -4 c4 -7 8 -34 8 -60
0 -63 23 -85 100 -98 108 -19 135 -38 135 -95 0 -14 6 -27 13 -29 6 -2 31 -9
54 -15 50 -14 107 -68 124 -118 15 -47 5 -93 -36 -154 -19 -28 -35 -52 -35
-53 0 -2 26 6 58 17 77 26 201 20 269 -14 72 -36 69 -53 -23 -144 -97 -96
-138 -124 -267 -184 -94 -44 -157 -90 -157 -113 0 -16 -60 2 -148 43 -62 30
-88 49 -106 77 -68 104 -38 184 101 263 42 24 53 35 39 37 -20 4 -130 -33
-161 -54 -50 -35 -125 1 -125 61 0 66 105 183 219 244 35 18 79 32 118 37 73
8 74 19 3 28 -27 4 -50 9 -50 11 0 2 8 20 17 40 19 39 9 61 -13 30 -30 -41
-79 -88 -118 -113 -23 -15 -74 -51 -114 -80 -83 -60 -102 -58 -102 7 0 44 40
111 94 159 64 56 12 38 -73 -26 -37 -28 -39 -19 -11 62 30 87 79 173 122 211
41 38 52 42 65 23z m3007 -63 c65 -27 131 -73 148 -103 l18 -30 -60 -4 c-68
-5 -100 -27 -100 -67 0 -30 29 -78 61 -102 l22 -16 -45 -59 c-25 -33 -60 -85
-78 -117 -18 -32 -35 -55 -39 -52 -3 4 -4 48 -3 99 4 104 -8 145 -58 203 -28
31 -30 39 -28 104 1 66 0 71 -31 103 l-33 34 29 10 c43 16 156 14 197 -3z
m5096 -52 c33 -14 75 -45 105 -76 30 -32 91 -76 152 -111 70 -41 103 -66 107
-81 3 -13 23 -38 43 -56 21 -18 29 -30 18 -25 -11 4 -55 13 -98 20 -99 16
-110 26 -60 56 l38 22 -29 23 c-38 30 -199 115 -219 115 -9 0 -26 -18 -38 -40
-13 -22 -28 -40 -35 -40 -8 0 -23 32 -35 73 -12 39 -30 89 -40 109 -11 21 -19
40 -19 43 0 9 52 -6 110 -32z m-1669 -9 c56 -23 65 -24 116 -14 41 9 76 9 141
0 117 -16 132 -23 132 -60 0 -52 -35 -65 -170 -65 -63 0 -158 4 -210 9 -78 7
-102 6 -133 -7 -41 -17 -69 -64 -59 -100 13 -49 204 -88 335 -69 89 14 215 60
264 98 33 25 38 26 61 13 59 -33 55 -79 -6 -79 -26 0 -51 -8 -73 -25 -134 -98
-162 -105 -369 -86 -268 25 -280 25 -335 1 -27 -12 -71 -35 -98 -52 -57 -36
-73 -34 -172 26 -185 112 -181 109 -146 140 38 34 99 43 256 39 231 -6 274 17
275 142 0 75 8 103 29 108 44 12 106 5 162 -19z m1219 22 c0 -2 -7 -21 -16
-42 -11 -25 -14 -53 -10 -80 l5 -42 -54 5 c-47 5 -61 2 -107 -24 -66 -37 -143
-66 -163 -61 -13 2 -11 10 9 48 40 75 40 85 7 122 -28 33 -29 34 -8 33 11 -1
53 7 92 17 47 13 87 17 120 13 28 -3 64 -1 80 4 35 11 45 12 45 7z m-2488
-101 c29 -8 84 -21 121 -27 45 -7 83 -21 110 -39 44 -30 71 -36 82 -19 3 6 17
10 29 10 17 0 36 -16 65 -55 22 -30 41 -56 41 -59 0 -3 -30 15 -67 40 -38 24
-74 44 -81 44 -20 0 -83 -28 -137 -62 -65 -41 -203 -148 -234 -182 -20 -22
-33 -26 -76 -26 -109 0 -243 -42 -327 -101 -24 -18 -33 -20 -36 -10 -3 8 -20
31 -39 52 -56 62 -147 76 -265 39 -192 -59 -269 -201 -166 -307 23 -24 29 -36
21 -44 -8 -8 -19 -3 -40 20 -15 17 -68 53 -118 79 -108 57 -139 94 -130 157
11 71 35 146 50 151 7 3 37 -11 65 -30 29 -20 61 -36 72 -36 11 0 41 21 66 48
40 39 75 59 214 120 155 67 171 72 237 72 85 0 122 -14 200 -75 46 -36 65 -45
96 -45 53 0 136 43 185 96 70 76 67 112 -20 208 -71 78 -78 95 -16 38 28 -26
64 -46 98 -57z m1018 4 c0 -35 -2 -40 -17 -34 -10 5 -44 15 -76 23 -49 13 -56
17 -41 25 23 13 71 25 107 26 25 1 27 -2 27 -40z m-1250 24 c0 -5 -21 -30 -45
-58 -39 -43 -44 -46 -33 -20 18 46 48 85 64 85 8 0 14 -3 14 -7z m-3726 -26
c33 -12 61 -27 63 -33 4 -14 -87 -39 -97 -27 -4 4 -17 25 -29 46 -27 44 -21
45 63 14z m680 1 c31 -48 42 -203 19 -282 -4 -16 -8 -15 -36 12 -33 31 -155
113 -284 193 -40 24 -73 47 -73 51 0 7 82 33 130 41 14 2 71 5 127 6 96 1 103
0 117 -21z m1653 -11 c14 -13 14 -21 5 -42 -10 -21 -9 -25 3 -25 8 0 20 9 27
20 11 18 14 18 30 3 10 -8 64 -28 120 -42 96 -25 103 -29 100 -50 -3 -16 6
-32 30 -52 l33 -28 -30 -2 c-62 -3 -91 3 -118 23 -18 12 -37 18 -50 14 -12 -3
-29 1 -38 10 -31 28 -92 43 -176 44 l-83 0 0 76 0 76 65 -4 c43 -3 71 -10 82
-21z m-307 -58 c-63 -56 -95 -72 -120 -59 -30 16 -43 46 -30 70 10 18 18 20
73 14 35 -3 73 -1 87 4 39 16 38 14 -10 -29z m67 -162 c-57 -67 -123 -169
-137 -213 -8 -23 -20 -36 -37 -40 -30 -8 -97 13 -118 36 -14 15 -12 21 12 58
45 66 110 140 218 247 l100 100 3 -68 c3 -67 3 -68 -41 -120z m-2428 156 c36
7 83 -15 105 -48 17 -26 21 -27 73 -21 l55 6 39 -44 c48 -54 68 -62 108 -42
39 20 41 20 41 -5 0 -14 -11 -25 -37 -35 -94 -39 -185 -87 -241 -129 -34 -25
-69 -45 -77 -45 -21 0 -19 32 6 79 15 30 19 49 14 73 -11 54 -50 111 -102 150
-27 21 -57 46 -67 57 -18 20 -18 20 19 10 21 -6 50 -9 64 -6z m456 -21 c-6 -5
-31 -28 -58 -52 l-48 -43 -24 23 c-14 13 -25 27 -25 31 0 12 101 48 135 48 16
1 25 -3 20 -7z m3650 -42 c-18 -50 -34 -72 -46 -64 -19 11 -8 49 23 81 17 18
33 31 35 29 2 -1 -4 -22 -12 -46z m2600 34 c12 -5 -18 -24 -97 -61 -178 -85
-202 -123 -76 -123 106 0 241 41 277 83 10 13 21 10 76 -22 35 -20 65 -39 65
-42 0 -8 -188 -97 -222 -105 -19 -4 -38 0 -61 15 -19 12 -48 21 -65 21 -46 0
-134 21 -159 37 -50 33 -16 76 94 122 39 16 89 41 110 55 20 14 38 26 40 26 1
0 9 -3 18 -6z m685 -18 c68 -36 62 -45 -24 -39 -53 4 -80 2 -90 -6 -16 -13
-36 -7 -36 10 0 5 11 21 25 34 31 32 68 32 125 1z m-8705 -13 c-42 -105 -48
-132 -49 -228 -1 -91 2 -105 27 -158 16 -32 52 -82 81 -112 54 -55 184 -145
269 -186 26 -13 46 -26 45 -30 -2 -4 -68 -55 -147 -115 -158 -119 -299 -252
-380 -359 -69 -91 -146 -250 -171 -350 -28 -111 -28 -274 0 -392 24 -101 96
-257 163 -356 26 -37 47 -69 47 -71 0 -6 -116 15 -187 35 -97 27 -155 53 -235
106 -120 79 -199 191 -244 348 -19 68 -24 200 -10 316 l8 76 -64 45 c-141 101
-234 238 -259 382 -17 102 -7 236 24 319 104 271 443 522 952 703 138 50 139
50 130 27z m8232 9 c6 -4 14 -24 18 -46 8 -38 7 -38 -16 -26 -82 43 -103 80
-46 80 17 0 37 -4 44 -8z m-3693 -41 c36 -39 30 -162 -8 -169 -18 -4 -200 171
-189 182 4 3 45 6 93 6 73 0 90 -3 104 -19z m1438 -38 c73 -54 108 -89 108
-106 0 -7 -14 -36 -30 -64 -30 -53 -31 -53 -79 -53 l-49 0 27 50 26 50 -47 46
-48 45 -33 -25 c-32 -24 -216 -116 -232 -116 -13 0 35 48 102 101 60 48 170
119 184 119 4 0 36 -21 71 -47z m3389 23 c66 -28 111 -97 139 -214 13 -58 17
-128 8 -138 -4 -3 -17 1 -30 10 -37 26 -40 19 -13 -34 47 -93 32 -136 -104
-293 -184 -212 -314 -321 -486 -406 -55 -28 -136 -60 -179 -72 -111 -30 -200
-64 -281 -109 -75 -41 -138 -62 -160 -54 -10 4 -13 27 -12 87 1 52 -3 90 -11
105 -8 14 -14 65 -16 133 l-2 109 31 29 c35 34 86 61 114 61 11 0 33 -11 49
-25 34 -28 42 -31 42 -12 0 26 -57 68 -98 74 -59 8 -106 -12 -172 -74 -38 -35
-66 -53 -75 -49 -24 9 -18 24 34 90 115 144 173 175 294 159 95 -13 86 16 -10
32 -50 8 -53 17 -15 43 91 64 212 46 291 -43 18 -21 34 -35 36 -33 2 2 -9 28
-26 57 -21 36 -46 62 -80 83 -27 17 -49 34 -49 38 0 12 45 28 107 40 67 12
129 3 211 -29 65 -26 80 -26 58 -2 -23 26 -122 69 -185 81 -62 12 -134 -1
-204 -37 -27 -13 -51 -22 -53 -20 -10 10 47 64 101 96 120 72 176 71 290 -5
33 -23 88 -56 123 -74 34 -18 76 -48 92 -67 32 -36 39 -29 16 15 -17 33 -51
65 -91 85 -16 8 -61 45 -100 81 -38 36 -78 68 -87 71 -48 16 0 45 74 45 74 0
143 -36 212 -111 30 -32 57 -59 60 -59 3 0 -9 29 -26 65 -18 35 -29 67 -26 70
12 13 75 -30 145 -98 40 -39 76 -68 79 -64 13 13 -92 151 -160 209 -39 34 -74
66 -78 72 -14 21 -8 47 17 71 21 22 33 25 98 25 42 0 89 -6 108 -14z m-6170
-20 c7 -15 9 -46 5 -80 l-7 -56 -44 0 c-39 0 -47 5 -84 47 -45 51 -48 70 -9
65 17 -2 35 6 53 22 36 33 72 34 86 2z m816 3 c46 -22 51 -30 30 -47 -10 -8
-27 -7 -65 5 -65 21 -116 10 -146 -30 -19 -26 -21 -42 -20 -147 l0 -119 -37
-17 c-37 -16 -39 -16 -83 10 l-46 27 17 42 c29 75 106 201 153 249 44 46 49
48 100 48 34 0 70 -8 97 -21z m4708 -13 c18 -13 18 -15 -6 -62 -32 -62 -58
-72 -136 -54 -32 7 -62 17 -68 22 -13 11 12 28 43 28 13 0 25 8 28 18 11 34
21 47 45 53 40 12 74 10 94 -5z m-6102 -122 c42 -7 42 -13 5 -87 -22 -45 -33
-50 -167 -74 l-103 -19 5 40 c7 50 31 83 93 124 52 36 45 35 167 16z m5812 -1
c19 3 45 -3 70 -16 22 -11 67 -26 100 -32 l60 -11 -48 -23 c-70 -34 -140 -107
-163 -169 -16 -42 -29 -58 -67 -82 -26 -16 -52 -41 -59 -54 -21 -47 -83 -41
-150 13 -24 19 -23 27 12 58 56 49 33 74 -115 128 l-115 42 23 20 c12 12 51
31 86 43 35 11 101 38 148 59 78 36 87 38 136 29 28 -5 65 -8 82 -5z m-5256
-83 c24 -11 70 -40 103 -65 33 -25 64 -45 69 -45 26 0 3 -48 -48 -98 -72 -71
-187 -148 -318 -213 -164 -81 -266 -97 -379 -59 -33 11 -96 23 -141 26 l-82 7
-13 36 c-7 20 -31 53 -54 73 l-40 37 49 48 c59 56 192 126 285 149 63 16 166
15 258 -2 23 -5 32 -3 32 8 0 22 61 89 94 104 46 20 134 17 185 -6z m4395 -66
l46 -56 -51 -46 c-67 -61 -79 -68 -79 -45 -1 30 -38 102 -76 146 l-35 42 33 6
c18 4 52 7 75 8 39 1 45 -2 87 -55z m-4129 -30 c17 -12 45 -26 64 -31 l35 -9
-38 -22 c-61 -36 -89 -27 -98 33 -3 17 -9 39 -13 49 -9 22 -2 19 50 -20z
m-1920 -38 c40 -20 94 -55 119 -79 l46 -42 -15 -49 c-30 -98 -17 -143 67 -232
57 -61 84 -63 73 -7 -8 46 7 63 60 63 74 0 125 61 125 151 0 29 4 40 13 36
121 -48 200 -82 232 -100 58 -32 82 -85 90 -203 4 -53 11 -92 16 -87 5 5 14
43 20 86 l11 77 62 0 c33 0 93 -8 131 -17 51 -12 120 -17 260 -18 123 -1 208
-6 240 -14 29 -8 117 -15 210 -16 103 -2 188 -9 240 -20 125 -26 502 -180 533
-218 9 -11 6 -19 -18 -42 l-29 -28 -37 29 c-61 49 -61 49 -78 35 -26 -22 -19
-37 24 -50 55 -16 70 -49 70 -153 0 -46 5 -112 11 -147 5 -35 6 -68 2 -72 -4
-4 -28 -4 -52 2 -25 5 -56 8 -70 7 -24 -3 -22 -6 19 -25 25 -11 62 -28 83 -37
37 -16 62 -53 47 -69 -13 -14 -489 52 -820 113 -495 92 -936 204 -1440 368
-135 44 -294 90 -355 102 -201 40 -417 123 -554 214 -124 83 -122 122 14 202
171 100 250 153 307 204 73 65 114 81 201 76 53 -3 84 -11 142 -40z m5163 -11
c29 -13 69 -42 89 -64 39 -44 92 -72 170 -91 29 -6 57 -18 64 -26 11 -14 8
-82 -5 -115 -8 -19 27 -29 98 -29 58 0 70 -10 55 -43 -8 -18 -27 -32 -58 -43
-25 -10 -61 -23 -80 -31 -18 -7 -48 -13 -66 -13 -21 0 -45 -9 -63 -25 -25 -21
-34 -23 -63 -15 -114 33 -342 30 -525 -6 l-82 -16 -42 45 c-46 51 -112 82
-160 75 -20 -3 -35 1 -45 12 -13 15 -10 20 36 54 27 22 63 54 78 73 l28 34 6
-60 c3 -33 8 -64 12 -70 11 -19 102 -12 285 20 246 43 269 58 172 114 -60 34
-59 28 -18 138 14 37 26 77 26 87 0 27 23 25 88 -5z m1445 -36 c35 -16 34 -25
-4 -38 -27 -9 -30 -14 -25 -37 8 -30 16 -29 -109 -4 -33 7 -78 10 -99 7 l-40
-6 32 25 c18 14 36 41 43 63 l11 38 82 -17 c44 -10 93 -24 109 -31z m-4723
-39 c18 -9 18 -12 4 -47 -15 -35 -15 -90 0 -124 12 -28 -81 -51 -229 -56
l-130 -5 93 58 c51 33 125 87 164 121 39 35 73 63 75 63 2 0 13 -5 23 -10z
m3096 -37 c-22 -97 -22 -100 25 -124 54 -27 40 -33 -57 -24 l-74 7 0 33 c0 27
-8 40 -41 69 -36 30 -39 37 -24 42 35 14 81 22 129 23 48 1 48 1 42 -26z
m1534 -58 c101 -24 160 -52 160 -76 0 -4 -22 -24 -49 -43 -27 -20 -63 -59 -81
-86 -27 -42 -35 -48 -50 -40 -26 14 -80 12 -196 -5 -54 -8 -146 -15 -203 -15
-103 0 -103 0 -130 31 -120 140 -124 142 -294 133 -74 -5 -116 -3 -120 3 -12
18 16 31 113 54 98 22 196 26 425 19 88 -3 126 1 190 17 96 26 149 28 235 8z
m-3811 -87 c30 -21 72 -41 94 -45 21 -3 41 -11 43 -18 3 -7 -2 -39 -12 -70
-15 -55 -15 -61 2 -117 16 -55 16 -62 1 -86 -15 -26 -19 -27 -94 -24 -43 2
-93 -2 -111 -7 -31 -9 -45 -4 -180 63 l-147 73 54 28 c65 32 149 115 175 170
11 21 21 59 24 82 l5 43 46 -26 c25 -15 70 -45 100 -66z m853 35 c23 -10 41
-26 48 -44 26 -62 -11 -78 -138 -61 -116 16 -147 45 -98 91 45 42 110 47 188
14z m-353 -26 c-11 -40 1 -104 27 -144 14 -23 14 -23 -43 -23 -32 0 -68 -3
-79 -6 -21 -6 -21 -4 7 52 16 31 29 68 29 81 0 23 55 91 65 81 3 -2 0 -21 -6
-41z m1586 5 c22 -15 51 -32 65 -39 24 -11 24 -11 3 -12 -22 -1 -149 60 -168
81 -20 21 59 -2 100 -30z m-56 -73 c-48 -14 -69 -10 -79 15 -5 13 -6 33 -3 44
5 19 8 18 56 -16 48 -35 49 -37 26 -43z m-711 -34 c34 -25 62 -47 62 -50 0 -2
-24 4 -53 14 -58 20 -95 14 -154 -24 -31 -21 -153 -34 -153 -17 0 6 18 16 40
22 22 6 63 31 90 55 65 58 88 58 168 0z m-2077 -11 l34 -37 -40 8 c-22 4 -98
9 -170 11 -331 8 -438 33 -150 35 83 0 170 4 195 8 83 15 94 13 131 -25z
m3869 16 c22 -11 47 -31 56 -45 25 -38 6 -51 -83 -58 -56 -4 -84 -11 -106 -27
-23 -17 -36 -20 -65 -15 -59 11 -60 19 -7 30 45 10 53 15 75 57 48 86 62 93
130 58z m-6635 -103 c300 -173 427 -244 534 -297 61 -30 111 -57 110 -60 0 -3
-21 -21 -47 -41 -26 -20 -61 -60 -79 -90 -103 -173 -74 -396 70 -540 47 -48
226 -171 411 -284 54 -33 117 -76 139 -96 l41 -36 -41 -106 c-23 -58 -48 -136
-54 -173 -36 -209 66 -404 295 -563 42 -29 76 -48 76 -42 0 6 -28 41 -63 78
-86 93 -120 138 -155 208 -47 95 -57 133 -56 230 1 82 6 103 53 233 28 79 51
160 51 179 0 52 -49 93 -216 182 -319 169 -467 314 -481 471 -11 117 58 226
178 283 l57 27 168 -71 c93 -39 270 -105 394 -147 124 -42 230 -81 236 -86 24
-25 115 -186 140 -249 16 -42 36 -75 52 -85 23 -15 28 -15 86 7 132 49 154 53
291 47 150 -6 253 -29 364 -81 41 -20 76 -33 79 -30 9 8 -38 53 -91 87 -28 18
-86 47 -131 65 l-81 33 87 0 c54 0 166 -13 290 -34 112 -19 269 -42 350 -52
l146 -18 -127 -62 c-70 -34 -133 -70 -141 -80 -14 -16 -13 -17 5 -10 80 33
255 92 331 111 l92 23 238 -19 c251 -19 839 -43 854 -34 12 7 113 -31 177 -67
124 -70 192 -162 201 -274 6 -86 -14 -139 -79 -199 -221 -206 -784 -230 -1528
-64 -74 16 -136 27 -138 25 -11 -11 13 -26 106 -67 l100 -43 -26 -36 c-279
-371 -798 -670 -1313 -757 -139 -23 -402 -23 -563 1 -70 10 -131 16 -134 12
-11 -11 29 -34 97 -55 92 -29 226 -50 370 -59 l125 -7 -64 -44 c-137 -94 -365
-184 -536 -212 -118 -19 -306 -15 -425 10 -612 129 -1204 711 -1381 1361 -22
81 -26 87 -92 149 -155 146 -277 414 -277 609 0 168 108 375 302 578 157 164
418 361 462 348 12 -3 84 -42 161 -87z m5379 -21 c38 -16 71 -55 57 -69 -6 -6
-38 -3 -83 7 -129 30 -143 43 -68 64 49 14 56 14 94 -2z m-1209 -11 c103 -2
134 -25 154 -113 l9 -43 -36 5 c-142 20 -286 14 -416 -20 -64 -17 -186 -11
-186 9 0 14 81 91 131 124 60 40 122 54 204 46 39 -3 102 -7 140 -8z m3137
-12 c9 -10 18 -27 20 -38 3 -16 14 -21 56 -26 37 -5 59 -14 72 -29 27 -31 27
-94 0 -117 -26 -23 -25 -35 5 -63 21 -20 25 -32 25 -85 0 -69 -25 -115 -61
-115 -31 0 -33 27 -7 80 14 28 21 50 17 50 -5 0 -41 -33 -81 -73 -89 -90 -158
-126 -321 -167 -132 -33 -365 -70 -445 -70 -72 0 -74 11 -36 150 13 43 -20 7
-67 -75 -47 -83 -67 -95 -155 -95 -56 0 -84 17 -84 50 0 10 9 47 20 82 39 123
21 128 -25 7 -14 -36 -36 -75 -48 -87 -60 -56 -190 -84 -473 -101 -98 -6 -267
-17 -374 -23 -107 -7 -244 -13 -305 -13 -100 0 -115 2 -167 28 -35 17 -72 46
-95 73 -56 69 -59 69 -159 18 -75 -39 -95 -45 -128 -39 -51 8 -83 25 -147 80
-49 42 -58 46 -91 41 -41 -7 -118 -48 -100 -54 6 -2 22 4 34 12 12 9 39 16 60
16 32 0 42 -6 75 -47 48 -60 59 -70 108 -93 54 -26 110 -25 173 5 67 31 75 31
129 0 81 -48 64 -54 -192 -67 -410 -21 -1034 7 -1106 49 -32 19 -42 60 -12 49
10 -4 60 -10 113 -13 72 -4 108 -2 149 11 87 26 117 21 231 -34 56 -28 104
-49 107 -47 12 13 -223 157 -255 157 -15 0 -56 -9 -92 -21 -84 -26 -194 -28
-241 -4 -72 37 -103 99 -103 205 -1 90 18 147 65 194 l39 39 118 -6 c64 -3
148 -13 185 -21 65 -14 76 -14 185 5 91 17 150 21 267 19 309 -6 289 -7 425
37 186 62 301 83 480 90 124 4 172 2 241 -12 80 -15 93 -16 165 -1 144 28 258
40 394 40 111 0 147 -3 205 -21 132 -42 188 -114 190 -246 2 -94 11 -108 20
-33 13 104 3 167 -39 236 -43 73 -39 80 39 80 75 -1 130 -16 232 -65 51 -25
95 -45 98 -45 3 0 -18 19 -46 43 -29 23 -54 47 -56 53 -9 28 65 37 359 43 164
4 300 10 304 14 15 15 91 7 106 -10z m-2389 -20 c-7 -2 -19 -2 -25 0 -7 3 -2
5 12 5 14 0 19 -2 13 -5z m225 0 c-10 -2 -28 -2 -40 0 -13 2 -5 4 17 4 22 1
32 -1 23 -4z m-165 -10 c-7 -2 -19 -2 -25 0 -7 3 -2 5 12 5 14 0 19 -2 13 -5z
m2766 -495 c-41 -110 -170 -360 -241 -469 -368 -560 -1005 -1086 -1773 -1464
-728 -358 -1500 -545 -2251 -545 -152 0 -155 0 -207 -29 -83 -47 -325 -147
-472 -196 -239 -79 -510 -139 -755 -166 -146 -16 -504 -16 -635 0 -261 32
-518 101 -710 190 -224 104 -468 309 -569 479 -4 7 32 -16 81 -53 163 -122
414 -229 623 -266 103 -18 334 -16 446 4 233 42 506 168 710 328 38 29 77 50
100 55 66 11 258 72 366 115 351 139 694 385 924 663 l41 49 164 -26 c247 -39
396 -50 612 -44 213 6 304 20 427 67 148 58 257 149 308 260 20 42 27 76 30
141 l4 86 48 12 c57 15 151 69 198 114 38 36 92 123 92 149 0 9 4 19 9 23 6 3
90 15 188 26 638 72 1226 214 1665 403 58 25 125 56 148 69 42 23 43 23 78 5
20 -10 48 -18 63 -18 34 0 180 42 239 69 67 31 71 28 49 -31z m-5769 -259 c69
-17 132 -33 140 -36 8 -2 -22 -16 -68 -29 -46 -13 -101 -33 -122 -44 -45 -23
-50 -24 -50 -9 0 6 -16 44 -35 86 -33 73 -34 75 -12 69 12 -3 78 -20 147 -37z
m3200 -278 c0 -4 -19 -30 -42 -56 -43 -49 -161 -115 -203 -115 -11 1 -33 18
-50 39 -16 21 -52 55 -79 77 l-48 39 188 11 c104 6 199 11 212 12 12 1 22 -2
22 -7z"/>
<path d="M12726 14016 c-60 -84 -98 -166 -157 -336 l-46 -134 -70 -12 c-416
-70 -791 -329 -958 -664 -46 -91 -63 -176 -45 -220 11 -26 17 -31 44 -28 34 3
36 6 90 137 58 139 122 236 226 342 175 177 355 269 649 329 62 13 122 31 133
40 15 12 27 51 48 160 32 165 69 289 112 373 42 84 30 91 -26 13z"/>
<path d="M6928 15903 c-51 -42 -135 -138 -179 -206 -43 -67 -80 -172 -100
-287 -17 -101 -17 -367 0 -453 20 -100 75 -156 111 -113 9 12 9 40 1 122 -14
137 -14 154 2 154 7 0 30 17 50 38 39 40 67 110 67 166 -1 49 -35 112 -74 138
-23 15 -36 31 -36 45 0 93 80 276 160 366 55 61 54 74 -2 30z m-160 -548 c18
-39 14 -90 -7 -116 -11 -13 -22 -21 -26 -17 -9 9 4 158 14 158 4 0 13 -11 19
-25z"/>
<path d="M4805 15795 c-147 -23 -277 -66 -305 -100 -15 -18 13 -165 43 -225
21 -42 24 -45 62 -44 22 0 94 17 160 36 279 83 495 93 810 39 229 -40 380 -46
463 -17 54 18 58 22 43 45 -8 12 -16 13 -49 3 -98 -30 -218 -8 -437 78 -510
202 -581 219 -790 185z"/>
<path d="M3306 15220 c-148 -96 -295 -276 -366 -445 -16 -41 -57 -181 -90
-312 -33 -131 -68 -269 -80 -307 -15 -54 -17 -72 -7 -78 33 -21 30 -26 168
307 96 231 121 281 179 350 65 79 135 129 254 186 58 27 110 58 116 68 23 43
5 174 -34 249 -23 45 -49 42 -140 -18z"/>
<path d="M5750 15245 c0 -9 13 -60 30 -115 82 -278 89 -521 23 -783 -43 -171
-106 -277 -188 -317 -24 -12 -49 -19 -54 -15 -17 10 -71 -24 -71 -45 0 -69
122 -65 219 7 83 63 158 240 182 427 26 210 -6 509 -77 721 -37 112 -64 162
-64 120z"/>
<path d="M5325 14801 c-51 -13 -91 -38 -120 -77 -111 -145 -75 -451 68 -580
61 -54 112 -70 176 -54 95 24 152 102 170 234 19 131 -12 273 -79 374 -56 83
-138 123 -215 103z m95 -161 c28 -68 2 -130 -55 -130 -71 0 -92 161 -25 182
25 8 66 -19 80 -52z"/>
<path d="M3030 14271 c-41 -79 -62 -374 -36 -538 37 -245 120 -391 264 -466
120 -64 266 -73 364 -24 35 18 44 28 46 54 4 39 -19 49 -75 34 -71 -20 -186
-14 -255 14 -228 91 -310 300 -295 752 4 106 5 193 2 193 -2 0 -9 -9 -15 -19z"/>
<path d="M3399 13977 c-55 -37 -79 -81 -79 -146 1 -199 242 -424 384 -359 110
50 69 298 -73 446 -80 83 -164 105 -232 59z m131 -99 c20 -22 27 -73 12 -94
-4 -6 -18 -17 -31 -24 -51 -27 -112 62 -77 115 21 32 67 34 96 3z"/>
<path d="M6947 13840 c34 -271 -49 -491 -215 -568 -52 -25 -68 -27 -177 -27
-109 0 -125 2 -176 26 -33 16 -94 62 -149 112 -104 96 -158 129 -245 152 -139
36 -312 -1 -434 -93 -19 -14 -36 -21 -38 -16 -2 6 -20 39 -41 75 -73 126 -191
214 -343 255 -101 27 -372 23 -419 -6 -32 -20 11 -32 146 -41 213 -13 330 -52
432 -144 108 -97 146 -246 108 -419 -67 -297 -359 -517 -691 -518 -215 -1
-361 84 -442 258 -39 83 -44 213 -13 316 28 93 77 190 130 257 23 29 39 55 37
58 -10 9 -112 -64 -154 -110 -97 -105 -137 -235 -131 -428 l3 -127 -42 -6
c-108 -15 -237 -119 -296 -239 -19 -40 -67 -137 -105 -217 -138 -286 -283
-460 -448 -537 -52 -25 -71 -28 -159 -28 -115 0 -164 17 -233 80 -77 69 -132
203 -132 320 0 35 -4 66 -9 69 -15 10 -79 -97 -107 -180 -22 -65 -27 -97 -27
-184 -1 -175 46 -298 157 -418 73 -77 166 -134 288 -175 90 -30 99 -31 258
-31 151 1 175 4 282 32 263 69 539 195 790 363 l88 58 102 6 c361 22 653 93
923 224 116 57 257 144 340 210 72 57 216 205 267 273 49 66 49 66 116 78 238
41 544 218 721 417 152 171 196 422 125 713 -21 81 -62 190 -81 210 -12 13
-13 6 -6 -50z"/>
<path d="M5905 11669 c-240 -25 -499 -156 -638 -323 -58 -70 -126 -205 -134
-266 -8 -61 13 -49 57 30 45 82 160 204 252 267 250 172 579 250 834 197 42
-8 78 -13 81 -10 9 9 -89 65 -141 80 -94 27 -204 36 -311 25z"/>
<path d="M7098 9493 c7 -3 16 -2 19 1 4 3 -2 6 -13 5 -11 0 -14 -3 -6 -6z"/>
<path d="M7820 9300 c-9 -6 -10 -10 -3 -10 6 0 15 5 18 10 8 12 4 12 -15 0z"/>
<path d="M5513 9405 c0 -8 4 -15 9 -15 4 0 8 4 8 9 0 6 -4 12 -8 15 -5 3 -9
-1 -9 -9z"/>
<path d="M5430 9320 c-13 -8 -12 -10 3 -10 9 0 17 5 17 10 0 12 -1 12 -20 0z"/>
<path d="M5286 9262 c-2 -4 4 -8 14 -8 10 0 16 4 14 8 -3 4 -9 8 -14 8 -5 0
-11 -4 -14 -8z"/>
<path d="M4452 9231 c-11 -6 -9 -9 5 -13 12 -3 20 0 20 8 0 16 -6 17 -25 5z"/>
<path d="M4335 9189 c-4 -6 -5 -12 -2 -15 2 -3 7 2 10 11 7 17 1 20 -8 4z"/>
<path d="M4901 9104 c0 -11 3 -14 6 -6 3 7 2 16 -1 19 -3 4 -6 -2 -5 -13z"/>
<path d="M4087 9069 c7 -7 15 -10 18 -7 3 3 -2 9 -12 12 -14 6 -15 5 -6 -5z"/>
<path d="M4028 9053 c7 -3 16 -2 19 1 4 3 -2 6 -13 5 -11 0 -14 -3 -6 -6z"/>
<path d="M3648 8833 c7 -3 16 -2 19 1 4 3 -2 6 -13 5 -11 0 -14 -3 -6 -6z"/>
<path d="M3668 8813 c7 -3 16 -2 19 1 4 3 -2 6 -13 5 -11 0 -14 -3 -6 -6z"/>
<path d="M3307 8596 c-4 -10 -1 -13 8 -9 8 3 12 9 9 14 -7 12 -11 11 -17 -5z"/>
<path d="M3300 8556 c7 -7 13 -7 20 0 6 6 3 10 -10 10 -13 0 -16 -4 -10 -10z"/>
<path d="M3548 8543 c7 -3 16 -2 19 1 4 3 -2 6 -13 5 -11 0 -14 -3 -6 -6z"/>
<path d="M3605 8420 c-3 -6 1 -7 9 -4 18 7 21 14 7 14 -6 0 -13 -4 -16 -10z"/>
<path d="M3691 8342 c-7 -13 -6 -19 2 -19 7 0 13 9 13 19 0 10 -1 18 -3 18 -1
0 -7 -8 -12 -18z"/>
<path d="M3760 8201 c0 -6 4 -13 10 -16 6 -3 7 1 4 9 -7 18 -14 21 -14 7z"/>
<path d="M3945 8110 c10 -11 20 -20 23 -20 3 0 -3 9 -13 20 -10 11 -20 20 -23
20 -3 0 3 -9 13 -20z"/>
<path d="M8668 9323 c7 -3 16 -2 19 1 4 3 -2 6 -13 5 -11 0 -14 -3 -6 -6z"/>
<path d="M10499 8883 c-13 -16 -12 -17 4 -4 9 7 17 15 17 17 0 8 -8 3 -21 -13z"/>
<path d="M10667 8849 c7 -7 15 -10 18 -7 3 3 -2 9 -12 12 -14 6 -15 5 -6 -5z"/>
<path d="M11290 8681 c0 -5 7 -12 16 -15 14 -5 15 -4 4 9 -14 17 -20 19 -20 6z"/>
<path d="M11535 8650 c-4 -6 1 -7 11 -3 13 5 15 3 9 -7 -5 -9 -4 -11 4 -6 6 4
9 12 6 17 -8 12 -22 12 -30 -1z"/>
<path d="M11225 8619 c-4 -6 -5 -12 -2 -15 2 -3 7 2 10 11 7 17 1 20 -8 4z"/>
<path d="M11443 8445 c0 -7 6 -11 14 -8 7 3 13 6 13 8 0 2 -6 5 -13 8 -8 3
-14 -1 -14 -8z"/>
<path d="M11880 8336 c0 -2 7 -7 16 -10 8 -3 12 -2 9 4 -6 10 -25 14 -25 6z"/>
<path d="M12096 8185 c4 -8 11 -15 16 -15 6 0 5 6 -2 15 -7 8 -14 15 -16 15
-2 0 -1 -7 2 -15z"/>
<path d="M12121 8144 c0 -11 3 -14 6 -6 3 7 2 16 -1 19 -3 4 -6 -2 -5 -13z"/>
</g>
</svg>
